<svg height="512" viewBox="0 0 128 128" width="512" xmlns="http://www.w3.org/2000/svg" xmlns:xlink="http://www.w3.org/1999/xlink"><linearGradient id="a" gradientUnits="userSpaceOnUse" x1="99.724" x2="28.221" y1="122.751" y2="51.248"><stop offset="0" stop-color="#a9d13c"/><stop offset="1" stop-color="#7be2f7"/></linearGradient><path d="m89.5 101.142a1.75 1.75 0 0 1 0-3.5h1.375a1.75 1.75 0 0 1 0 3.5zm20.5-9.719h-92a1.75 1.75 0 0 0 -1.75 1.75v6.219a1.751 1.751 0 0 0 1.75 1.75h64.375a1.75 1.75 0 0 0 0-3.5h-62.625v-2.719h88.5v2.719h-10.2a1.75 1.75 0 0 0 0 3.5h11.95a1.75 1.75 0 0 0 1.75-1.75v-6.219a1.749 1.749 0 0 0 -1.75-1.75zm0 16.827h-92a1.75 1.75 0 0 0 0 3.5h92a1.75 1.75 0 0 0 0-3.5zm-73.2-22.479h.107a8.544 8.544 0 0 0 6.124-2.671l24.732-25.958.43.431a1.75 1.75 0 0 0 2.475-2.473l-10.392-10.394 1.945-1.946 10.392 10.392a6.925 6.925 0 0 0 4.019 1.969 3.431 3.431 0 0 1 1.983.971l.779.778a3.925 3.925 0 0 0 .947 4.01l4.471 4.471a1.75 1.75 0 0 0 2.474 0l12-12a1.749 1.749 0 0 0 0-2.475l-4.467-4.476a3.888 3.888 0 0 0 -2.767-1.146 3.929 3.929 0 0 0 -1.241.2l-.778-.777a3.417 3.417 0 0 1 -.97-1.984 6.958 6.958 0 0 0 -1.969-4.019l-5.884-5.884a1.75 1.75 0 0 0 -2.475 2.475l5.882 5.881a3.444 3.444 0 0 1 .972 1.984 6.922 6.922 0 0 0 1.969 4.02l1.724 1.725a1.749 1.749 0 0 0 2.475 0 .416.416 0 0 1 .588 0l3.234 3.234-9.53 9.53-3.234-3.234a.418.418 0 0 1 0-.588 1.748 1.748 0 0 0 0-2.474l-1.726-1.727a6.951 6.951 0 0 0 -4.02-1.968 3.415 3.415 0 0 1 -1.981-.97l-14.688-14.694a13.812 13.812 0 0 0 1.835-13.8l1.714-1.713 4.541 4.541a1.75 1.75 0 1 0 2.475-2.475l-5.778-5.778a1.749 1.749 0 0 0 -2.475 0l-3.82 3.819a1.749 1.749 0 0 0 -.323 2.029l.1.2a10.328 10.328 0 0 1 -1.909 12.017 1.749 1.749 0 0 0 0 2.475l2.987 2.987-3.184 3.183a1.75 1.75 0 0 0 0 2.474l8.724 8.724-24.787 26.02a5.069 5.069 0 0 1 -3.634 1.583 5.283 5.283 0 0 1 -3.672-1.5 5.105 5.105 0 0 1 .089-7.305l22.717-21.645a1.75 1.75 0 1 0 -2.414-2.533l-22.72 21.649a8.606 8.606 0 0 0 5.934 14.835zm37.021-55.419a1.75 1.75 0 1 0 2.479-2.475l-.777-.777a1.75 1.75 0 1 0 -2.475 2.474z" fill="url(#a)"/></svg>