<?xml version="1.0" encoding="iso-8859-1"?>
<!-- Generator: Adobe Illustrator 19.0.0, SVG Export Plug-In . SVG Version: 6.00 Build 0)  -->
<svg version="1.1" id="Capa_1" xmlns="http://www.w3.org/2000/svg" xmlns:xlink="http://www.w3.org/1999/xlink" x="0px" y="0px"
	 viewBox="0 0 409.601 409.601" style="enable-background:new 0 0 409.601 409.601;" xml:space="preserve">
<path style="fill:#FCD462;" d="M350.043,291.862c-2.544-68.648-20.959-136.654-53.387-197.212
	c-6.63-12.384-14.099-24.762-25.181-33.393c-13.9-10.827-31.874-14.575-49.154-18.013c-13.986-2.784-29.773-5.223-41.445,2.97
	c-9.853,6.917-39.508,38.785-38.694,47.605c0.785,8.505,11.686,12.932,13.435,21.292c1.864,8.906-7.157,19.565-0.999,26.265
	c13.485,2.386,25.015-9.175,37.885-13.855c14.082-5.122,29.666-1.811,44.271,1.545c1.763,0.406,3.621,0.86,4.918,2.122
	c1.659,1.613,1.987,4.12,2.196,6.425c3.635,40.087-0.825,81.679-12.526,120.29c-0.804,2.653-4.328,3.118-5.881,0.82
	c-7.682-11.369-17.571-21.326-29.671-27.695c-14.168-7.457-31.574-9.542-46.388-3.467c-6.241,2.559-11.853,6.446-17.105,10.678
	c-2.28,1.837-5.62,3.774-7.828,1.851c-1.02-0.888-1.339-2.313-1.656-3.628c-4.024-16.725-46.987-30.932-63.351-36.227v164.826
	c13.526,14.647,59.174,27.04,77.537,34.551c29.975,12.258,63.577,10.555,95.906,8.655c105.802-6.644,110.786-68.477,113.795-82.603
	C349.089,314.547,350.463,303.221,350.043,291.862z"/>
<path style="fill:#3A556A;" d="M250.481,79.006c-4.079-41.175-37.382-74.48-78.557-78.56C116.277-5.067,69.893,41.315,75.404,96.962
	c4.078,41.178,37.384,74.485,78.562,78.562C209.612,181.034,255.993,134.653,250.481,79.006z"/>
<path style="fill:#64798A;" d="M201.063,80.38c-2.898-15.289-15.229-27.618-30.518-30.516
	c-27.367-5.188-50.915,18.364-45.721,45.732c2.9,15.287,15.229,27.613,30.516,30.511C182.706,131.293,206.252,107.745,201.063,80.38
	z"/>
<g>
	<path style="fill:#DC8744;" d="M117.404,300.061c3.369-7.895,5.029-16.413,6.259-24.852c0.545-4.236,0.684-8.521,1.044-12.757
		l-0.117-12.765l-0.655,12.709c-0.614,4.187-1.009,8.401-1.798,12.527c-1.717,8.216-3.616,16.518-7.531,23.703
		c-6.982,12.816-53.704,32.951-55.124,29.713v6.871C63.452,338.029,110.714,315.74,117.404,300.061z"/>
	<path style="fill:#DC8744;" d="M242.554,343.454c-6.014-11.096-10.799-23.089-12.92-35.687c-1.602-6.213-1.716-12.637-2.391-19.008
		c-0.398-6.386,0.126-12.806,0.144-19.234c-0.296,6.403-1.102,12.827-0.983,19.26c0.396,6.419,0.238,12.923,1.577,19.269
		c1.599,12.856,5.92,25.296,11.608,36.968c5.72,11.708,13.471,22.44,22.62,31.797c7.702,7.89,16.232,14.769,25.812,20.567
		c2.671-1.017,5.218-2.085,7.644-3.202c-10.692-5.226-21.029-12.532-29.925-20.948C256.545,364.615,248.602,354.581,242.554,343.454
		z"/>
	<path style="fill:#DC8744;" d="M205.29,352.196c-6.394,5.891-13.419,10.541-20.99,14.396c-7.568,3.776-15.762,6.439-24.198,7.271
		c-8.428,1.003-17.066-0.505-24.728-3.816c-7.905-3.01-14.313-8.625-20.344-14.237c6.309,5.331,12.915,10.563,20.783,13.127
		c7.639,2.869,15.987,3.908,24.012,2.556c8.029-1.186,15.727-4.102,22.799-8.064c7.018-3.982,13.713-8.943,19.257-14.571
		L205.29,352.196z"/>
</g>
<path style="fill:#2F4859;" d="M186.197,84.26c-1.519-9.911-9.619-18.01-19.529-19.53c-15.911-2.439-29.419,11.068-26.981,26.978
	c1.519,9.914,9.622,18.015,19.535,19.532C175.131,113.676,188.636,100.17,186.197,84.26z"/>
<g>
</g>
<g>
</g>
<g>
</g>
<g>
</g>
<g>
</g>
<g>
</g>
<g>
</g>
<g>
</g>
<g>
</g>
<g>
</g>
<g>
</g>
<g>
</g>
<g>
</g>
<g>
</g>
<g>
</g>
</svg>
